<?xml version="1.0" encoding="UTF-8"?>
<!DOCTYPE svg PUBLIC "-//W3C//DTD SVG 1.1//EN" "http://www.w3.org/Graphics/SVG/1.1/DTD/svg11.dtd">
<!-- Creator: CorelDRAW X7 -->
<svg xmlns="http://www.w3.org/2000/svg" xml:space="preserve" width="297mm" height="210mm" version="1.1" style="shape-rendering:geometricPrecision; text-rendering:geometricPrecision; image-rendering:optimizeQuality; fill-rule:evenodd; clip-rule:evenodd"
viewBox="0 0 29700 21000"
 xmlns:xlink="http://www.w3.org/1999/xlink">
 <defs>
  <style type="text/css">
   <![CDATA[
    .fil1 {fill:#365F91}
    .fil2 {fill:#00B050;fill-rule:nonzero}
    .fil0 {fill:#365F91;fill-rule:nonzero}
   ]]>
  </style>
 </defs>
 <g id="Layer_x0020_1">
  <metadata id="CorelCorpID_0Corel-Layer"/>
  <g id="_224757157472">
   <g>
    <path class="fil0" d="M13838 9558c-199,0 -371,71 -518,211 -145,-140 -317,-211 -518,-211 -205,0 -380,73 -527,220 -146,147 -220,323 -220,530l0 1131c211,3 448,-157 460,-448l0 -683c0,-81 28,-150 84,-206 56,-56 124,-84 203,-84 81,0 149,28 205,84 56,56 84,125 84,206l0 1131c198,5 430,-141 460,-411l0 -720c0,-81 28,-150 84,-206 56,-56 124,-84 203,-84 81,0 149,28 205,84 56,56 84,125 84,206l0 1131c226,5 441,-169 460,-443l0 -688c0,-207 -73,-383 -220,-530 -146,-147 -323,-220 -529,-220zm1444 1195c-23,0 -44,9 -62,28 -19,18 -28,40 -28,65 0,89 30,133 90,133l169 0c310,2 475,203 473,460l-642 0c-151,0 -280,-54 -388,-162 -108,-108 -162,-237 -162,-388l0 -43c0,-153 54,-283 162,-391 108,-108 237,-162 388,-162l527 0c-26,-75 -49,-127 -70,-156 -37,-46 -86,-70 -148,-70l-244 0c-305,-3 -457,-245 -459,-460l703 0c136,0 264,49 385,145 116,91 197,202 243,333l475 1354c-234,65 -419,8 -521,-183 -36,-67 -71,-141 -102,-218 -115,-281 -39,-285 -383,-285l-406 0zm2117 455l340 -979c33,-92 85,-137 149,-162 223,-88 338,-239 334,-460l-290 0c-133,0 -258,46 -374,138 -117,91 -198,202 -245,331l-474 1363c237,39 436,-9 560,-231zm1517 -1381c0,81 -28,150 -85,207 -57,57 -126,86 -207,86 -81,0 -150,-29 -207,-86 -57,-57 -85,-126 -85,-207 0,-81 28,-150 85,-207 57,-57 126,-85 207,-85 81,0 150,28 207,85 57,57 85,126 85,207zm-63 1609l0 -803c-60,-300 -239,-391 -457,-412l0 761c-1,254 173,436 457,454zm1039 -1875c243,0 449,92 619,275 164,177 246,390 246,637l0 966c-365,-14 -455,-260 -455,-565l0 -401c0,-120 -39,-226 -117,-317 -78,-92 -176,-138 -293,-138 -118,0 -216,46 -294,138 -78,91 -117,197 -117,317l0 532c-5,251 -185,424 -455,434l0 -966c0,-247 84,-461 251,-641 167,-181 371,-271 615,-271z"/>
    <path class="fil0" d="M20900 10455c0,-250 88,-467 262,-648 175,-181 387,-272 636,-272l393 0c147,0 273,52 377,156 104,105 156,230 156,377l0 84c0,146 -52,272 -156,377 -104,105 -230,158 -377,158l-607 0c12,-266 187,-449 456,-460l151 0c51,0 76,-25 76,-75 0,-56 -2,-90 -6,-102 -8,-38 -31,-58 -70,-58l-393 0c-124,0 -227,46 -311,138 -84,91 -126,200 -126,325 0,124 42,232 126,323 84,92 187,138 311,138l390 0c295,-1 480,224 475,460l-865 0c-249,0 -461,-91 -636,-272 -174,-181 -262,-398 -262,-649z"/>
   </g>
   <g>
    <g>
     <path class="fil1" d="M10206 10319c-33,-33 -43,-307 151,-549 -163,134 -357,330 -131,735 45,-114 156,-218 282,-307 172,-121 172,-317 -55,-415 89,-77 558,-274 770,-58l-287 -165c-414,30 -732,270 -730,759z"/>
     <path class="fil2" d="M10936 9560c-4,-2 72,3 80,3 36,3 70,8 104,15 170,34 319,118 448,252 173,180 259,396 259,646 0,249 -86,463 -259,644 -173,181 -384,272 -632,272 -249,0 -460,-91 -634,-272 -173,-181 -260,-395 -260,-644 0,-45 3,-88 8,-130 0,-2 286,1149 1183,868 468,-147 509,-509 509,-509 15,0 -59,160 -151,249 -151,143 -443,235 -438,192 7,-50 55,-214 159,-348 111,-142 268,-262 284,-449 18,-203 -60,-350 -53,-279 26,269 -31,370 -352,643 -266,228 -127,481 -150,431 -171,-389 -70,-605 -6,-673 566,-605 168,-749 -99,-911z"/>
    </g>
    <path class="fil2" d="M7903 11395c-254,0 -472,-89 -654,-267 -182,-179 -273,-395 -273,-648 0,-254 91,-471 273,-651 182,-180 400,-269 654,-269l544 0c0,101 -36,187 -108,258 -72,71 -159,106 -260,106l-176 0c-150,0 -278,55 -383,166 -106,110 -159,240 -159,390 0,149 53,279 159,387 105,109 233,163 383,163l176 0c101,0 188,36 260,107 72,71 108,157 108,258l-544 0zm1590 0c-254,0 -472,-89 -654,-267 -182,-179 -273,-395 -273,-648 0,-254 91,-471 273,-651 182,-180 400,-269 654,-269l541 0c0,101 -35,187 -107,258 -71,71 -157,106 -258,106l-176 0c-152,0 -281,55 -387,164 -106,110 -159,240 -159,392 0,151 53,281 159,388 106,108 235,162 387,162l176 0c101,0 187,36 258,107 72,71 107,157 107,258l-541 0z"/>
    <path class="fil0" d="M7719 10304l672 0c0,101 -36,187 -108,257 -72,70 -158,105 -259,105l-305 0c-51,0 -94,-17 -129,-51 -35,-35 -52,-77 -52,-127 0,-52 17,-96 51,-131 35,-35 78,-53 130,-53z"/>
   </g>
  </g>
 </g>
</svg>
